# xmcd
#
# Track frame offsets:
#	183
#	15625
#	33745
#
# Disc length: 660 seconds
# Revision: 15
# Processed by: cddbd v1.5.2PL0 Copyright (c) Steve Scherf et al.
# Submitted via: dBpowerAMP V12.0
#
DISCID=1d029203
DTITLE=Billy Ray Cyrus - Achy Breaky Heart
DYEAR=1992
DGENRE=Country
TTITLE0=Achy Breaky Heart
TTITLE1=I'm So Miserable
TTITLE2=Wher'm I Gonna Live?
EXTD=
EXTT0=
EXTT1=
EXTT2=
PLAYORDER=
